<svg xmlns="http://www.w3.org/2000/svg" xmlns:xlink="http://www.w3.org/1999/xlink" viewBox="0 0 3716.42 1560.52"><defs><style>.cls-1{fill:none;}.cls-2{isolation:isolate;}.cls-3{fill:url(#linear-gradient);}.cls-4{clip-path:url(#clip-path);}.cls-5{fill:url(#linear-gradient-2);}.cls-6{fill:url(#linear-gradient-3);}.cls-7{fill:url(#linear-gradient-4);}.cls-8{fill:url(#linear-gradient-5);}.cls-9{opacity:0.72;fill:url(#linear-gradient-6);}.cls-10{fill:url(#Degradado_sin_nombre_5);}.cls-11{fill:#c9e7f2;}.cls-12{fill:#609cd1;}.cls-13{fill:#0ea59b;}.cls-14{fill:#fff;}.cls-15{fill:#97d1d0;}.cls-16{fill:#c7398c;}.cls-17{fill:#a4a6a9;opacity:0.5;mix-blend-mode:multiply;}.cls-18{fill:#ea79ac;}.cls-19{fill:#302535;}.cls-20{fill:#49b7a4;}.cls-21{fill:#0075a1;}.cls-22{fill:#1b3d74;}.cls-23{fill:#bfe3eb;}.cls-24{fill:#cfd1d2;}.cls-25{fill:#04809c;}</style><linearGradient id="linear-gradient" x1="1857.71" y1="311.54" x2="1857.71" y2="1429.84" gradientUnits="userSpaceOnUse"><stop offset="0" stop-color="#eea4ba" stop-opacity="0.9"/><stop offset="1" stop-color="#e23b8c" stop-opacity="0.78"/></linearGradient><clipPath id="clip-path"><rect class="cls-1" width="3714.73" height="1574.69"/></clipPath><linearGradient id="linear-gradient-2" x1="2617.59" y1="1186.66" x2="2617.59" y2="181.99" gradientUnits="userSpaceOnUse"><stop offset="0" stop-color="#fff"/><stop offset="1" stop-color="#e39dc5" stop-opacity="0"/></linearGradient><linearGradient id="linear-gradient-3" x1="760.29" y1="1186.66" x2="760.29" y2="181.99" xlink:href="#linear-gradient-2"/><linearGradient id="linear-gradient-4" x1="760.38" y1="-406.29" x2="760.38" y2="337.09" gradientUnits="userSpaceOnUse"><stop offset="0" stop-color="#ca2672"/><stop offset="1" stop-color="#d12d76" stop-opacity="0"/></linearGradient><linearGradient id="linear-gradient-5" x1="2617.59" y1="-567.99" x2="2617.59" y2="329.26" xlink:href="#linear-gradient-4"/><linearGradient id="linear-gradient-6" x1="2615.99" y1="358.15" x2="2615.99" y2="1103.96" gradientUnits="userSpaceOnUse"><stop offset="0" stop-color="#e84387"/><stop offset="1" stop-color="#e8418e" stop-opacity="0"/></linearGradient><linearGradient id="Degradado_sin_nombre_5" x1="1857.36" y1="1139.27" x2="1857.36" y2="1560.52" gradientUnits="userSpaceOnUse"><stop offset="0.19" stop-color="#90cfcf"/><stop offset="1" stop-color="#6e98d0"/></linearGradient></defs><g class="cls-2"><g id="PRINT"><rect class="cls-3" width="3715.42" height="1560.52"/><g class="cls-4"><path class="cls-5" d="M3715.42,311.68V777.87c-122.65,3.78-262.84,16.35-327.2,146.55C3336.75,1028.61,3142.74,974,3084,1106.65H2149.68c-58.75-132.67-252.76-78-304.24-182.23-64.12-129.67-203.37-142.66-325.67-146.49V311.68Z"/><path class="cls-6" d="M1520.59,311.68V777.87c-84.94,3.78-182,16.35-226.6,146.55-35.65,104.19-170,49.56-210.7,182.23h-647c-40.69-132.67-175-78-210.7-182.23C181.13,794.75,84.7,781.76,0,777.93V311.68Z"/><path class="cls-7" d="M1342.54,266.51s-75.41-161.64-239.92-161.64S917.54,280.3,917.54,280.3s-32-55.19-150.81-55.19c-2.16,0-4.27.06-6.35.16-2.08-.1-4.19-.16-6.35-.16-118.82,0-150.81,55.19-150.81,55.19S582.66,104.87,418.14,104.87,178.22,266.51,178.22,266.51C125.67,215.25,0,242.85,0,327.61v47.31H1520.76V327.61C1520.76,242.85,1395.09,215.25,1342.54,266.51Z"/><path class="cls-8" d="M3458.23,244.06S3349.35,49,3111.79,49s-267.26,211.75-267.26,211.75-46.19-66.62-217.76-66.62c-3.13,0-6.18.08-9.18.2-3-.12-6.05-.2-9.17-.2-171.58,0-217.77,66.62-217.77,66.62S2361,49,2123.39,49,1777,244.06,1777,244.06c-75.89-61.86-257.36-28.55-257.36,73.76v57.1h2196v-57.1C3715.59,215.51,3534.12,182.2,3458.23,244.06Z"/><ellipse class="cls-9" cx="2615.99" cy="631.96" rx="398.7" ry="372.91"/><rect class="cls-10" y="1139.27" width="3714.73" height="421.25"/><rect class="cls-11" x="1.69" y="1106.65" width="3714.73" height="32.63"/><rect class="cls-12" y="1418.25" width="3714.73" height="142.27"/><path class="cls-13" d="M2212.44,669.41c-37.93,19.5-35.47,50.73-33.06,62.19C2212.86,708.1,2213.56,680,2212.44,669.41Z"/><path class="cls-14" d="M2212.7,675.21a55.58,55.58,0,0,0-.26-5.8c-37.93,19.5-35.47,50.73-33.06,62.19,1.14-.79,2.15-1.61,3.22-2.42C2181.28,715.65,2183.91,691.89,2212.7,675.21Z"/><path class="cls-15" d="M2127.55,825c16.53,32.29,42.49,60.07,62.41,90,11.32,17,17.05,37.51,29.26,53.82,11.72,15.65,22.66,33.89,36,48,22,23.36,36.25,56.56,53,84.33,15.71,26.07,20.08,48.62,20.23,79,0,0,0,.06,0,.09,0,.34,0,.68,0,1,0,.19,0,.38,0,.57v0c-.16,61.13-1.2,122,.36,183,.25,10,5.05,51.25-.32,73.35.35,1.11-5.68,12.76-9.12,13.8-19.17,18.79-47.87,24.34-72.79,33.86h184c-24.92-9.52-53.62-15.07-72.78-33.86-3.45-1-9.47-12.69-9.13-13.8-5.37-22.1-.56-63.32-.31-73.35,1.55-61.08.52-121.9.35-183v-1.63s0-.06,0-.09c.16-30.4,4.53-53,20.24-79,16.74-27.77,31-61,53-84.33,13.29-14.11,24.23-32.35,36-48,12.21-16.31,17.94-36.77,29.27-53.82,19.91-30,45.86-57.74,62.4-90-138.57,0-75.9-4.71-211-4.8C2203.45,820.33,2266.11,825.05,2127.55,825Zm211.84,20.86h1.75c101.82.13,55.48,3.73,160.83,3.63a3.32,3.32,0,0,1,3.28,3.5,3.69,3.69,0,0,1,.8,4.41c-10.73,22.32-27.94,41.54-42.06,61.47-14.28,20.14-23.09,42.87-37.89,62.62-7.63,10.19-14.84,21.08-23.51,30.28-10.31,10.95-15.6,27.07-23.42,39.94-6.47,10.65-13.6,20.71-19.27,31.92a54.85,54.85,0,0,0-2.35,5.38s-14.52,21.15-20.7,20.85-17.33-20.85-17.33-20.85a57.46,57.46,0,0,0-2.36-5.38c-5.67-11.21-12.79-21.27-19.27-31.92-7.81-12.87-13.11-29-23.42-39.94-8.66-9.2-15.87-20.09-23.5-30.28-14.8-19.75-23.62-42.48-37.89-62.62C2199,899,2181.75,879.77,2171,857.45a3.71,3.71,0,0,1,.8-4.41,3.32,3.32,0,0,1,3.28-3.5c105.36.1,59-3.5,160.84-3.63h3.46Z"/><path class="cls-16" d="M2225.79,925.15c8.59,12.93,12.95,28.47,22.21,40.82,8.9,11.89,17.2,25.72,27.28,36.44,16.69,17.72,27.51,42.91,40.21,64a103.7,103.7,0,0,1,10.38,22.67s8.22,14.33,11.26,13.66c5.34-1.2,16.2-20.21,16.2-20.21l.13.21a109,109,0,0,1,8.11-16.33c12.71-21.07,23.52-46.26,40.21-64,10.1-10.72,18.4-24.55,27.29-36.44,9.27-12.35,13.62-27.89,22.21-40.82,15.1-22.75,34.8-43.83,47.35-68.33-105.12,0-57.67-3.58-160.09-3.63s-55,3.65-160.1,3.63C2191,881.32,2210.68,902.4,2225.79,925.15Z"/><path class="cls-16" d="M2216,804c14.79-13.56,15-41,1.86-56.37-12-14-25.36-11.52-39.3-5.75a4.6,4.6,0,0,1-.63.42c-.2.08-.37,0-.55.09-.41.16-.8.34-1.21.52-.08,0-.1.09-.18.13-22.39,9.89-26.26,39.37-11.56,59.23C2176.33,818.34,2201.78,816.9,2216,804Z"/><path class="cls-17" d="M2224.94,783c-14.17,12.95-39.62,14.39-51.57-1.73a44.23,44.23,0,0,1-8.5-30.27c-12.09,13.22-12.28,35.34-.49,51.28,11.95,16.11,37.4,14.67,51.57,1.73,6.36-5.84,10-14.26,11.08-23.18C2226.36,781.54,2225.68,782.26,2224.94,783Z"/><path class="cls-14" d="M2173.7,753.8c.07,0,.1-.1.17-.13.42-.17.81-.36,1.22-.52.17-.07.35,0,.54-.08a6.26,6.26,0,0,0,.63-.42c13.94-5.77,27.34-8.23,39.31,5.75,7.11,8.3,10.27,20.16,9.36,31.44,4.84-13.9,2.34-31.2-7.12-42.25-12-14-25.36-11.52-39.3-5.75a4.6,4.6,0,0,1-.63.42c-.2.08-.37,0-.55.09-.41.16-.8.34-1.21.52-.08,0-.1.09-.18.13-12.66,5.59-19.39,17.46-20.2,30.3A33.09,33.09,0,0,1,2173.7,753.8Z"/><path class="cls-18" d="M2239.39,951.48A91.78,91.78,0,0,0,2248,966c8.9,11.89,17.2,25.72,27.28,36.44,16.69,17.72,27.51,42.91,40.21,64a103.7,103.7,0,0,1,10.38,22.67s8.22,14.33,11.26,13.66c5.34-1.2,16.2-20.21,16.2-20.21l.13.21a109,109,0,0,1,8.11-16.33c12.71-21.07,23.52-46.26,40.21-64,10.1-10.72,18.4-24.55,27.29-36.44a92.54,92.54,0,0,0,8.61-14.49Z"/><path class="cls-17" d="M2396.75,854l-94.58,188.68c4.43,8.09,8.76,16.19,13.32,23.76a103.7,103.7,0,0,1,10.38,22.67s8.22,14.33,11.26,13.66c5.34-1.2,16.2-20.21,16.2-20.21l.13.21a109,109,0,0,1,8.11-16.33c12.71-21.07,23.52-46.26,40.21-64,10.1-10.72,18.4-24.55,27.29-36.44,9.27-12.35,13.62-27.89,22.21-40.82,15.1-22.75,34.8-43.83,47.35-68.33C2423.63,856.84,2426.27,855,2396.75,854Z"/><path class="cls-14" d="M2252.75,869.46c0,7.73-14.59,14-32.59,14s-32.59-6.27-32.59-14,14.59-14,32.59-14S2252.75,861.72,2252.75,869.46Z"/><path class="cls-14" d="M2337,897.06c0,5.08-3.86,9.2-8.62,9.2s-8.62-4.12-8.62-9.2,3.86-9.2,8.62-9.2S2337,892,2337,897.06Z"/><path class="cls-14" d="M2340.48,1097.47a104.45,104.45,0,0,0-10.38-22.68c-12.71-21.07-23.52-46.26-40.21-64-10.09-10.7-18.39-24.54-27.29-36.42-9.26-12.36-13.61-27.9-22.2-40.82-15.11-22.75-34.81-43.83-47.35-68.33,105.11,0,57.67-3.58,160.1-3.64,95.5.06,60.74,3.17,140.84,3.59,1.62-2.75,3.19-5.53,4.64-8.36-105.12,0-57.67-3.58-160.09-3.63s-55,3.65-160.1,3.63c12.55,24.5,32.24,45.58,47.35,68.33,8.59,12.93,12.95,28.47,22.21,40.82,8.9,11.89,17.2,25.72,27.28,36.44,16.69,17.72,27.51,42.91,40.21,64a103.7,103.7,0,0,1,10.38,22.67s8.22,14.33,11.26,13.66c1.26-.3,2.82-1.58,4.48-3.36C2340.91,1098.22,2340.48,1097.47,2340.48,1097.47Z"/><path class="cls-14" d="M2338.54,820.24c-135.09.09-72.43,4.81-211,4.8,16.53,32.29,42.49,60.07,62.41,90,11.32,17,17.05,37.51,29.26,53.82,11.72,15.65,22.66,33.89,36,48,22,23.36,36.25,56.56,53,84.33,15.71,26.07,20.08,48.62,20.23,79,0,0,0,.06,0,.09,0,.34,0,.68,0,1,0,.19,0,.38,0,.57v0c-.16,61.13-1.2,122,.36,183,.25,10,5.05,51.25-.32,73.35.35,1.11-5.68,12.76-9.12,13.8-19.17,18.79-47.87,24.34-72.79,33.86l38.42,2c14.11-5.19,37.77-16.06,48.32-26.41.1,0,5.63-20.4,0,0,5.83-10.35,3.6-72,3-136-.55-59.59.68-121.46,1.49-138.83,1.38-29.42-6.39-53.13-10.11-68-3.25,1.14.88,1.46,0,0-16.74-27.77-30.28-66.46-52.27-89.82-13.29-14.12-24.23-32.35-36-48-12.21-16.3-17.95-36.77-29.27-53.81-19.92-30-46.35-60.94-62.88-93.24,138.56,0,73.38-4.12,208.46-4.2,125.38.08,85.66,4.23,189.36,4.81,2.34-3.92,2.33-5.37,4.4-9.41C2411,825.05,2473.62,820.33,2338.54,820.24Z"/><path class="cls-14" d="M2214.79,759.85c-1.51,4-8.79,4.63-16.28,1.42s-12.33-9.07-10.82-13.08,8.79-4.61,16.28-1.4S2216.3,755.85,2214.79,759.85Z"/><path class="cls-14" d="M2198.55,696.45c-3,4.33-7.33,6.39-9.56,4.61s-1.57-6.75,1.47-11.09,7.32-6.39,9.55-4.6S2201.59,692.12,2198.55,696.45Z"/><path class="cls-14" d="M2437.15,895.46a5.35,5.35,0,1,1-5.34-5.7A5.53,5.53,0,0,1,2437.15,895.46Z"/><ellipse class="cls-14" cx="2393.13" cy="943.48" rx="9.27" ry="9.91"/><path class="cls-14" d="M2328.7,1001.08c0,5.48-4.15,9.91-9.27,9.91s-9.27-4.43-9.27-9.91,4.15-9.9,9.27-9.9S2328.7,995.61,2328.7,1001.08Z"/><path class="cls-14" d="M2363.45,984.48s5.24-.4,5.05,5-.37,20.59,5.62,20.19,6.17-3.8,6.36-9-1.68-16,4.5-16.8a52.57,52.57,0,0,1,12.74.2"/><path class="cls-19" d="M2398.65,981.88c-5.59-1.63-15.27-2.38-19.18,3.21-3.61,5.16,4.28,24-6.18,22.42-8.32-1.26,5.26-25.66-10.07-24.51-2.88.21-2.9,5,0,4.8,6-.45,3,10.5,3,14.62,0,5,2.13,9.14,7,9.87,6.34,1,9.6-3.81,10.27-9.86.43-3.84-.45-7.81-.56-11.63-.2-6.95,10.26-5.55,14.57-4.29C2400.26,987.33,2401.45,982.7,2398.65,981.88Z"/><path class="cls-14" d="M2265.84,917.25c-1.11.16,17-5.4,16.86,4s2.25,12.61,11.23,10.81c0,0-4.67,1.4-4.67,8.41s2,22.4-6.93,20.39-9.55-9.4-8.43-17.2a107.39,107.39,0,0,0,.56-19.6C2274.27,923.25,2271.46,916.45,2265.84,917.25Z"/><path class="cls-19" d="M2297.87,930.26c-9.45.39-11.28,5.68-10.12,15,.61,4.8,1.74,18-7.25,12.31-3.82-2.41-3.93-8.31-3.87-12.4.07-7.42,2.29-15.16.39-22.48s-9.46-7.25-15.14-6.15c-2.85.54-1.64,5.18,1.18,4.62,4-.77,8.57-1.28,9.88,3.78.95,3.67.15,8.1-.2,11.81-.67,7.19-1.71,15.27,2.24,21.63,3,4.8,11.44,8.22,15.22,2.58,2.26-3.37,2.59-7.38,2.52-11.42-.11-6.41-3.91-14.1,5.15-14.48C2300.76,934.93,2300.76,930.13,2297.87,930.26Z"/><path class="cls-14" d="M2195.43,833.84c0,6.19-13.25,11.21-29.59,11.21s-29.6-5-29.6-11.21,13.25-11.2,29.6-11.2S2195.43,827.66,2195.43,833.84Z"/><path class="cls-12" d="M2357.74,1452.14c-.14-.05-.3-.21-.45-.28a125.12,125.12,0,0,0,16.3,34.14h56.93C2405.6,1476.48,2376.9,1470.93,2357.74,1452.14Z"/><path class="cls-19" d="M2553.93,815.45c-138.88.12-77.65-4.64-212-4.79h-6.86c-83,.1-91.35,1.94-118.39,3.31,20.43-12.47,22-41.24,12.75-62.62-7.6-17.5-21.56-23-36.26-21.83,33.71-30.53,25.14-65.87,25-66.26l-1-4-3.56,1.63c-34.33,15.8-41.62,40.67-42,58-12.65-19-33.87-31.95-55.85-25.31-4.81,1.46-2.17,9.25,2.62,7.8,22.82-6.9,44.73,12.84,53.24,34.29-23.7,11.66-28.38,37.06-18.72,62.11,3.07,8,7.53,13.62,12.85,17.51-11.73.11-25.7.17-42.67.16-2.82,0-4.24,2.27-4.32,4.6a4.9,4.9,0,0,0-1.06,5.82c14.15,29.4,36.83,54.73,55.44,81,18.81,26.56,30.43,56.49,49.93,82.53,10.06,13.43,19.56,27.78,31,39.91,13.58,14.43,20.56,35.67,30.86,52.62,8.54,14,17.93,27.3,25.4,42.07,9,17.89,9.06,37,9.05,56.59-.13,53.52-2.43,107-.43,160.5.35,9.05,5.57,76.59.78,96.43-20.49,30.1-66.72,32-95.51,48.34a4.25,4.25,0,0,0-2.07,4.92c0,2.41,1.43,4.83,4.33,4.83h224c2.91,0,4.35-2.42,4.35-4.83a4.29,4.29,0,0,0-2.08-4.92c-28.79-16.39-75-18.24-95.52-48.34-4.78-19.84.44-87.38.78-96.43,2-53.5-.3-107-.43-160.5,0-19.63,0-38.7,9.06-56.59,7.47-14.77,16.86-28,25.39-42.07,10.3-17,17.28-38.19,30.86-52.62,11.43-12.13,20.92-26.48,31-39.91,19.5-26,31.13-56,49.93-82.53,18.62-26.26,41.3-51.59,55.45-81a4.89,4.89,0,0,0-1.06-5.82C2558.16,817.72,2556.75,815.44,2553.93,815.45Zm-341.49-146c1.12,10.57.42,38.69-33.06,62.19C2177,720.14,2174.51,688.91,2212.44,669.41Zm-48.06,132.82c-14.7-19.86-10.83-49.34,11.56-59.23.08,0,.1-.1.18-.13.41-.18.8-.36,1.21-.52.18-.07.35,0,.55-.09a4.6,4.6,0,0,0,.63-.42c13.94-5.77,27.33-8.22,39.3,5.75C2231,762.93,2230.74,790.4,2216,804,2201.78,816.9,2176.33,818.34,2164.38,802.23Zm322.74,112.84c-11.33,17-17.06,37.51-29.27,53.82-11.73,15.65-22.67,33.89-36,48-22,23.36-36.25,56.56-53,84.33-15.71,26.07-20.08,48.62-20.24,79,0,0,0,.06,0,.09V1182c.17,61.13,1.2,122-.35,183-.25,10-5.06,51.25.31,73.35-.34,1.11,5.68,12.76,9.13,13.8,19.16,18.79,47.86,24.34,72.78,33.86h-184c24.92-9.52,53.62-15.07,72.79-33.86,3.44-1,9.47-12.69,9.12-13.8,5.37-22.1.57-63.32.32-73.35-1.56-61.08-.52-121.9-.36-183v0c0-.19,0-.38,0-.57,0-.35,0-.69,0-1,0,0,0-.06,0-.09-.15-30.4-4.52-53-20.23-79-16.74-27.77-31-61-53-84.33-13.3-14.11-24.24-32.35-36-48-12.21-16.31-17.94-36.77-29.26-53.82-19.92-30-45.88-57.74-62.41-90,138.56,0,75.9-4.71,211-4.8,135.08.09,72.41,4.81,211,4.8C2533,857.33,2507,885.11,2487.12,915.07Z"/><path class="cls-19" d="M2337.71,845.91h-1.78c-101.82.13-55.48,3.73-160.84,3.63a3.32,3.32,0,0,0-3.28,3.5,3.71,3.71,0,0,0-.8,4.41c10.74,22.32,27.95,41.54,42.07,61.47,14.27,20.14,23.09,42.87,37.89,62.62,7.63,10.19,14.84,21.08,23.5,30.28,10.31,10.95,15.61,27.07,23.42,39.94,6.48,10.65,13.6,20.71,19.27,31.92a57.46,57.46,0,0,1,2.36,5.38s11.14,20.56,17.33,20.85,20.7-20.85,20.7-20.85a54.85,54.85,0,0,1,2.35-5.38c5.67-11.21,12.8-21.27,19.27-31.92,7.82-12.87,13.11-29,23.42-39.94,8.67-9.2,15.88-20.09,23.51-30.28,14.8-19.75,23.61-42.48,37.89-62.62,14.12-19.93,31.33-39.15,42.06-61.47a3.69,3.69,0,0,0-.8-4.41,3.32,3.32,0,0,0-3.28-3.5c-105.35.1-59-3.5-160.83-3.63h-3.43Zm160.92,10.91c-12.55,24.5-32.25,45.58-47.35,68.33-8.59,12.93-12.94,28.47-22.21,40.82-8.89,11.89-17.19,25.72-27.29,36.44-16.69,17.72-27.5,42.91-40.21,64a109,109,0,0,0-8.11,16.33l-.13-.21s-10.86,19-16.2,20.21c-3,.67-11.26-13.66-11.26-13.66a103.7,103.7,0,0,0-10.38-22.67c-12.7-21.07-23.52-46.26-40.21-64C2265.2,991.69,2256.9,977.86,2248,966c-9.26-12.35-13.62-27.89-22.21-40.82-15.11-22.75-34.8-43.83-47.35-68.33,105.12,0,57.67-3.58,160.1-3.63S2393.51,856.84,2498.63,856.82Z"/><path class="cls-20" d="M2906,931.94c-1.4-.07-2.82-.11-4.29-.07a2,2,0,0,1-.44.1c-.12,0-.21-.06-.33-.06l-.79,0a.61.61,0,0,0-.13,0c-14.72.76-22.59,16.81-18,31.41,3.75,11.84,18.61,16.59,29.21,12.26,11.07-4.52,16.46-20.21,11.88-31.88a18.87,18.87,0,0,0-1.11-2.34A34.12,34.12,0,0,1,2906,931.94Z"/><path class="cls-13" d="M2923.11,943.76a18.87,18.87,0,0,0-1.11-2.34c-1.42-.41-2.79-.91-4.13-1.44.51,10.06-4.59,20.67-13.38,24.26a23.78,23.78,0,0,1-23.16-3.53c.19.89.42,1.79.69,2.67,3.75,11.84,18.61,16.59,29.21,12.26C2922.3,971.12,2927.69,955.43,2923.11,943.76Z"/><path class="cls-20" d="M2945.41,935.07c15.15-6.19,22.53-27.67,16.26-43.65-5.71-14.54-16.87-16.64-29.31-16.27a4.18,4.18,0,0,1-.61.15c-.17,0-.28-.1-.45-.1l-1.08,0c-.07,0-.11.06-.18.07-20.15,1-30.93,23-24.61,43C2910.56,934.48,2930.9,941,2945.41,935.07Z"/><path class="cls-13" d="M2961.67,891.42c-2.24-5.68-5.31-9.45-9-11.93,6.23,16-1.15,37.39-16.28,43.57-9.73,4-22.08,2.33-30.71-4.07,5.51,15.67,25.42,21.91,39.7,16.08C2960.56,928.88,2967.94,907.4,2961.67,891.42Z"/><path class="cls-14" d="M2910.49,923.68c-6.32-20,4.46-41.95,24.61-43,.06,0,.11-.05.17-.05.37,0,.73,0,1.09,0,.16,0,.28.1.45.1a4.15,4.15,0,0,0,.61-.14c7.93-.23,15.33.55,21.14,4.91-6.17-9.14-15.72-10.62-26.2-10.31a4.18,4.18,0,0,1-.61.15c-.17,0-.28-.1-.45-.1l-1.08,0c-.07,0-.11.06-.18.07-20.15,1-30.93,23-24.61,43a25.18,25.18,0,0,0,8.41,12.09A24.62,24.62,0,0,1,2910.49,923.68Z"/><path class="cls-15" d="M2982.79,852.79c10.61.17,24.05.27,41.95.24a3.32,3.32,0,0,1,3.28,3.5,3.71,3.71,0,0,1,.8,4.41c-10.73,22.32-27.94,41.54-42.07,61.47-14.27,20.14-23.09,42.87-37.89,62.62-7.63,10.19-14.83,21.08-23.5,30.28-10.31,11-15.6,27.07-23.42,39.94-6.48,10.65-13.6,20.71-19.27,31.92a54.85,54.85,0,0,0-2.35,5.38s-14.53,21.15-20.71,20.85-17.33-20.85-17.33-20.85a54.85,54.85,0,0,0-2.35-5.38c-5.67-11.21-12.8-21.27-19.27-31.92-7.81-12.87-13.11-29-23.42-39.94-8.67-9.2-15.87-20.09-23.51-30.28-14.8-19.75-23.61-42.48-37.89-62.62-14.12-19.93-31.32-39.15-42.06-61.47a3.71,3.71,0,0,1,.8-4.41,3.32,3.32,0,0,1,3.28-3.5c105.35.1,59-3.5,160.84-3.63h5.2c75.7.1,69.58,2.1,104.68,3.1,6.07-7.81,13-16.61,19.62-25.1-34.59-1.4-34.89-3.61-126.9-3.67-135.08.09-72.42,4.81-211,4.8,16.53,32.29,42.48,60.07,62.4,90,11.32,17.05,17.06,37.51,29.27,53.82,11.72,15.65,22.66,33.88,36,48,22,23.36,36.24,56.56,53,84.33,15.72,26.07,20.08,48.62,20.24,79,0,0,0,.06,0,.09v1.63c-.16,61.13-1.19,122,.35,183,.26,10,5.06,51.25-.31,73.35.34,1.11-5.68,12.76-9.13,13.8-19.16,18.79-47.86,24.34-72.78,33.86h184c-24.92-9.52-53.62-15.07-72.79-33.86-3.44-1-9.46-12.69-9.12-13.8-5.37-22.1-.57-63.32-.31-73.35,1.54-61.08.51-121.9.35-183v0c0-.19,0-.38,0-.57,0-.35,0-.69,0-1,0,0,0-.06,0-.09.16-30.4,4.52-53,20.24-79,16.74-27.77,31-61,53-84.33,13.29-14.12,24.23-32.35,36-48,12.2-16.31,17.94-36.77,29.26-53.82,19.91-30,45.87-57.74,62.4-90-33,0-54.56-.27-70.12-.68C2995.83,836,2989.06,844.68,2982.79,852.79Z"/><path class="cls-21" d="M2861.3,856.68c-102.42.05-55,3.65-160.1,3.63,12.55,24.5,32.25,45.58,47.36,68.33,8.59,12.93,12.94,28.47,22.2,40.82,8.9,11.89,17.2,25.72,27.29,36.44,16.69,17.72,27.5,42.91,40.21,64a103.65,103.65,0,0,1,10.37,22.67s8.23,14.33,11.26,13.65c5.34-1.2,16.21-20.2,16.21-20.2l.13.21a108.07,108.07,0,0,1,8.11-16.33c12.71-21.07,23.52-46.26,40.21-64,10.09-10.72,18.39-24.55,27.28-36.44,9.27-12.35,13.62-27.89,22.21-40.82,15.11-22.75,34.81-43.83,47.36-68.33-19.22,0-33.3-.11-44.16-.31-6.24,8.11-11.59,15.16-14.95,19.74,3.86,4.5,6.49,10.44,7.15,18.21,1.77,20.66-8.31,44.18-30.2,45.3a55.75,55.75,0,0,1-8.58-.21,27.32,27.32,0,0,1,.88,4.85c1.43,16.69-6.71,35.69-24.4,36.6a40.63,40.63,0,0,1-17.6-2.76c-16.62,22.42-29.41,38.5-30.86,36.95-2-2.16,8.07-19.51,22.78-42.15-4.37-4.13-7.26-10-7.61-17.85-.81-18.14,7.57-33,25.17-34.5.13,0,.23-.08.37-.09.49,0,1,0,1.49,0A35.18,35.18,0,0,1,2898,911.3c-1-22.46,9.38-40.91,31.16-42.7a3.09,3.09,0,0,1,.46-.12c8.2-.46,16.54.72,23.48,4.19,2.34-3.15,5.78-7.66,9.92-13C2931.12,858.61,2935.55,856.72,2861.3,856.68Z"/><path class="cls-22" d="M2931.56,955c-1.07,14.56-9.2,28.73-24.42,29.52a40.63,40.63,0,0,1-17.6-2.76c-16.62,22.42-29.41,38.5-30.86,36.95-2-2.16,8.07-19.51,22.78-42.15-4.37-4.13-7.26-10-7.61-17.85-.06-1.25-.06-2.49,0-3.71H2762.16a92.49,92.49,0,0,0,8.6,14.49c8.9,11.89,17.2,25.72,27.29,36.44,16.69,17.72,27.5,42.91,40.21,64a103.65,103.65,0,0,1,10.37,22.67s8.23,14.33,11.26,13.65c5.34-1.2,16.21-20.2,16.21-20.2l.13.21a108.07,108.07,0,0,1,8.11-16.33c12.71-21.07,23.52-46.26,40.21-64,10.09-10.72,18.39-24.55,27.28-36.44a91.78,91.78,0,0,0,8.61-14.49Z"/><path class="cls-17" d="M3006.82,860.29c-12,0-21.68-.15-29.58-.29-6.24,8.11-11.59,15.16-14.95,19.74,3.86,4.5,6.49,10.44,7.15,18.21,1.77,20.66-8.31,44.18-30.2,45.3a55.75,55.75,0,0,1-8.58-.21,27.32,27.32,0,0,1,.88,4.85c1.43,16.69-6.71,35.69-24.4,36.6a40.63,40.63,0,0,1-17.6-2.76c-16.62,22.42-29.41,38.5-30.86,36.95a1,1,0,0,1-.2-.48l-26.76,40.26c2.15,3.89,4.31,7.73,6.54,11.42a103.65,103.65,0,0,1,10.37,22.67s8.23,14.33,11.26,13.65c5.34-1.2,16.21-20.2,16.21-20.2l.13.21a108.07,108.07,0,0,1,8.11-16.33c12.71-21.07,23.52-46.26,40.21-64,10.09-10.72,18.39-24.55,27.28-36.44,9.27-12.35,13.62-27.89,22.21-40.82,14.56-21.92,33.31-42.32,45.89-65.68Z"/><path class="cls-14" d="M2895.76,1027c0,5.09-3.86,9.21-8.62,9.21s-8.61-4.12-8.61-9.21,3.86-9.21,8.61-9.21S2895.76,1021.9,2895.76,1027Z"/><path class="cls-14" d="M2843,978.07a5.35,5.35,0,1,1-5.34-5.7A5.53,5.53,0,0,1,2843,978.07Z"/><path class="cls-14" d="M2862.7,907c0,5.48-4.15,9.91-9.27,9.91s-9.27-4.43-9.27-9.91,4.15-9.9,9.27-9.9S2862.7,901.48,2862.7,907Z"/><path class="cls-14" d="M2791.58,900.25c-1.11.16,17-5.4,16.86,4s2.25,12.61,11.24,10.81c0,0-4.68,1.39-4.68,8.4s2.05,22.4-6.94,20.4-9.55-9.41-8.42-17.21a108.36,108.36,0,0,0,.56-19.6C2800,906.24,2797.2,899.45,2791.58,900.25Z"/><path class="cls-19" d="M2823.61,913.26c-9.45.38-11.29,5.68-10.12,15,.61,4.8,1.74,18-7.26,12.3-3.81-2.4-3.91-8.3-3.87-12.39.08-7.43,2.3-15.16.4-22.49s-9.46-7.24-15.15-6.14c-2.85.54-1.63,5.17,1.2,4.62,4-.77,8.56-1.28,9.86,3.78,1,3.67.16,8.1-.19,11.81-.67,7.19-1.71,15.26,2.24,21.63,3,4.8,11.43,8.21,15.21,2.58,2.27-3.37,2.6-7.38,2.53-11.43-.11-6.41-3.91-14.1,5.15-14.47C2826.5,917.93,2826.51,913.13,2823.61,913.26Z"/><path class="cls-14" d="M2969.3,870.39l46.78-.57c1.87-3.13,3.66-6.28,5.32-9.51-19.22,0-33.3-.11-44.16-.31C2974.36,863.75,2971.7,867.23,2969.3,870.39Z"/><path class="cls-14" d="M2864.88,1102.3c-15.21-44.63-41.38-98.18-55.27-107.72-15.74-10.81-27-36-38.22-57.62s-46.07-63.61-46.07-63.61L2918.91,871a34.67,34.67,0,0,1,10.27-2.4,3.09,3.09,0,0,1,.46-.12,50.62,50.62,0,0,1,18.43,2.16l6.63-.09c2.2-2.93,5-6.62,8.34-10.89-31.92-1-27.49-2.94-101.74-3-102.42.05-55,3.65-160.1,3.63,12.55,24.5,32.25,45.58,47.36,68.33,8.59,12.93,12.94,28.47,22.2,40.82,8.9,11.89,17.2,25.72,27.29,36.44,16.69,17.72,27.5,42.91,40.21,64a103.65,103.65,0,0,1,10.37,22.67s8.23,14.33,11.26,13.65C2861.28,1105.89,2863,1104.36,2864.88,1102.3Z"/><path class="cls-14" d="M2792.75,873.94c0,8.29-15.35,15-34.28,15s-34.27-6.72-34.27-15,15.34-15,34.27-15S2792.75,865.66,2792.75,873.94Z"/><path class="cls-14" d="M2939.67,880.16c1.41,3.88-2.74,9.18-9.25,11.88s-12.92,1.75-14.32-2.11,2.73-9.18,9.24-11.88S2938.27,876.3,2939.67,880.16Z"/><path class="cls-14" d="M2887.08,965.18c-4.62-14.6,3.26-30.65,18-31.41a.61.61,0,0,1,.13,0l.79,0c.12,0,.2.06.33.06a2.84,2.84,0,0,0,.44-.1c.38,0,.73,0,1.1,0-.63-.58-1.3-1.12-1.87-1.75-1.4-.07-2.82-.11-4.29-.07a2,2,0,0,1-.44.1c-.12,0-.21-.06-.33-.06l-.79,0a.61.61,0,0,0-.13,0c-14.72.76-22.59,16.81-18,31.41,2.22,7,8.33,11.5,15.14,13.13A19.17,19.17,0,0,1,2887.08,965.18Z"/><path class="cls-14" d="M2894.87,949.23c-2.91,5.09-7.11,8-9.36,6.54s-1.7-6.79,1.22-11.87,7.1-8,9.35-6.55S2897.79,944.15,2894.87,949.23Z"/><path class="cls-14" d="M2830.93,1104.71c1.38,2.29,2.64,4.54,3.85,6.77-13.17-44.24-36.66-81.56-51-97.7-21.35-24-36-50.41-49.45-74.42s-59.56-99.62-59.56-99.62L2980,837.88c2.72-3.48,5.48-7,8.21-10.48-34.59-1.4-34.89-3.61-126.9-3.67-135.08.09-72.42,4.81-211,4.8,16.53,32.29,42.48,60.07,62.4,90,11.32,17.05,17.06,37.51,29.27,53.82,11.72,15.65,22.66,33.88,36,48C2799.94,1043.74,2814.19,1076.94,2830.93,1104.71Z"/><path class="cls-14" d="M3002.16,827.85l-7.73,9.94,73-.45c1.68-2.91,3.36-5.82,4.89-8.81C3039.29,828.53,3017.72,828.26,3002.16,827.85Z"/><path class="cls-14" d="M2842.09,1455.63c-19.16,18.79-47.86,24.34-72.78,33.86h67.36a76.4,76.4,0,0,0,15.11-50.41c-.18.92-.35,1.88-.56,2.75C2851.56,1442.94,2845.54,1454.59,2842.09,1455.63Z"/><path class="cls-12" d="M2872,1443.74c2,6.26,9.26,27,24.53,45.75h56.81c-24.92-9.52-53.62-15.07-72.79-33.86C2877.77,1454.8,2873.46,1447.34,2872,1443.74Z"/><path class="cls-19" d="M3076.69,818.94c-30.78,0-51.72-.19-67.15-.54,10.31-13.19,18.08-23.07,18.08-23.07s.75-13.6-9.74-5.6c0,0-10,12.62-22.3,28.27-38.61-1.36-36.4-3.75-130.85-3.85h-6.86c-134.33.15-73.08,4.91-212,4.79-2.82,0-4.25,2.27-4.32,4.6a4.89,4.89,0,0,0-1.06,5.82c14.15,29.4,36.83,54.72,55.44,81,18.81,26.56,30.43,56.48,49.93,82.53,10.06,13.43,19.56,27.78,31,39.9,13.59,14.44,20.56,35.68,30.86,52.63,8.54,14,17.93,27.3,25.4,42.07,9,17.89,9.06,37,9.05,56.59-.13,53.52-2.44,107-.43,160.49.34,9,5.56,76.6.78,96.44-20.49,30.1-66.73,32-95.52,48.34a4.27,4.27,0,0,0-2.07,4.92c0,2.41,1.43,4.83,4.34,4.83h224c2.91,0,4.35-2.42,4.34-4.83a4.27,4.27,0,0,0-2.07-4.92c-28.8-16.39-75-18.24-95.52-48.34-4.78-19.84.44-87.39.78-96.44,2-53.49-.3-107-.43-160.49,0-19.63,0-38.7,9.06-56.59,7.47-14.77,16.85-28,25.39-42.07,10.3-17,17.28-38.19,30.86-52.63,11.42-12.12,20.92-26.47,31-39.9,19.51-26,31.12-56,49.93-82.53,18.62-26.27,41.29-51.59,55.44-81a4.87,4.87,0,0,0-1.06-5.82C3080.94,821.21,3079.51,818.93,3076.69,818.94Zm-66.81,99.62c-11.32,17.05-17.06,37.51-29.26,53.82-11.73,15.65-22.67,33.88-36,48-22,23.36-36.25,56.56-53,84.33-15.72,26.07-20.08,48.62-20.24,79,0,0,0,.06,0,.09,0,.34,0,.68,0,1,0,.19,0,.38,0,.57v0c.16,61.13,1.19,122-.35,183-.26,10-5.06,51.25.31,73.35-.34,1.11,5.68,12.76,9.12,13.8,19.17,18.79,47.87,24.34,72.79,33.86h-184c24.92-9.52,53.62-15.07,72.78-33.86,3.45-1,9.47-12.69,9.13-13.8,5.37-22.1.57-63.32.31-73.35-1.54-61.08-.51-121.9-.35-183v-1.63s0-.06,0-.09c-.16-30.4-4.52-53-20.24-79-16.74-27.77-31-61-53-84.33-13.3-14.12-24.24-32.35-36-48-12.21-16.31-17.95-36.77-29.27-53.82-19.92-30-45.87-57.74-62.4-90,138.56,0,75.9-4.71,211-4.8,92,.06,92.31,2.27,126.9,3.67-6.67,8.49-13.55,17.29-19.62,25.1-35.1-1-29-3-104.68-3.1h-5.2c-101.83.13-55.49,3.73-160.84,3.63a3.32,3.32,0,0,0-3.28,3.5,3.71,3.71,0,0,0-.8,4.41c10.74,22.32,27.94,41.54,42.06,61.47,14.28,20.14,23.09,42.87,37.89,62.62,7.64,10.19,14.84,21.08,23.51,30.28,10.31,11,15.61,27.07,23.42,39.94,6.47,10.65,13.6,20.71,19.27,31.92a54.85,54.85,0,0,1,2.35,5.38s11.15,20.56,17.33,20.85,20.71-20.85,20.71-20.85a54.85,54.85,0,0,1,2.35-5.38c5.67-11.21,12.79-21.27,19.27-31.92,7.82-12.87,13.11-29,23.42-39.94,8.67-9.2,15.87-20.09,23.5-30.28,14.8-19.75,23.62-42.48,37.89-62.62,14.13-19.93,31.34-39.15,42.07-61.47a3.71,3.71,0,0,0-.8-4.41,3.32,3.32,0,0,0-3.28-3.5c-17.9,0-31.34-.07-41.95-.24,6.27-8.11,13-16.82,19.37-24.94,15.56.41,37.13.68,70.12.68C3055.75,860.82,3029.79,888.6,3009.88,918.56Zm-104.45-.29c-6.32-20,4.46-41.94,24.61-43,.07,0,.11-.07.18-.07l1.08,0c.17,0,.28.1.45.1a4.18,4.18,0,0,0,.61-.15c12.44-.37,23.6,1.73,29.31,16.27,6.27,16-1.11,37.46-16.26,43.65C2930.9,941,2910.56,934.48,2905.43,918.27Zm5.8,57.37c-10.6,4.33-25.46-.42-29.21-12.26-4.61-14.6,3.26-30.65,18-31.41a.61.61,0,0,1,.13,0l.79,0c.12,0,.21.06.33.06a2,2,0,0,0,.44-.1c1.47,0,2.89,0,4.29.07a34.12,34.12,0,0,0,16,9.48,18.87,18.87,0,0,1,1.11,2.34C2927.69,955.43,2922.3,971.12,2911.23,975.64Zm41.89-103c-6.94-3.47-15.28-4.65-23.48-4.19a3.09,3.09,0,0,0-.46.12c-21.78,1.79-32.16,20.24-31.16,42.7a35.18,35.18,0,0,0,2.86,12.77c-.5,0-1,0-1.49,0-.14,0-.24.07-.37.09-17.6,1.45-26,16.36-25.17,34.5.35,7.88,3.24,13.72,7.61,17.85-14.71,22.64-24.8,40-22.78,42.15,1.45,1.55,14.24-14.53,30.86-36.95a40.63,40.63,0,0,0,17.6,2.76c17.69-.91,25.83-19.91,24.4-36.6a27.32,27.32,0,0,0-.88-4.85,55.75,55.75,0,0,0,8.58.21c21.89-1.12,32-24.64,30.2-45.3-.66-7.77-3.29-13.71-7.15-18.21,3.36-4.58,8.71-11.63,14.95-19.74,10.86.2,24.94.32,44.16.31-12.55,24.5-32.25,45.58-47.36,68.33-8.59,12.93-12.94,28.47-22.21,40.82-8.89,11.89-17.19,25.72-27.28,36.44-16.69,17.72-27.5,42.91-40.21,64a108.07,108.07,0,0,0-8.11,16.33l-.13-.21s-10.87,19-16.21,20.2c-3,.68-11.26-13.65-11.26-13.65a103.65,103.65,0,0,0-10.37-22.67c-12.71-21.07-23.52-46.26-40.21-64-10.09-10.72-18.39-24.55-27.29-36.44-9.26-12.35-13.61-27.89-22.2-40.82-15.11-22.75-34.81-43.83-47.36-68.33,105.13,0,57.68-3.58,160.1-3.63,74.25,0,69.82,1.93,101.74,3C2958.9,865,2955.46,869.52,2953.12,872.67Z"/><path class="cls-23" d="M2529.34,1031.11a8,8,0,0,1-.34,1.17c-.8,5.22-1.7,10.4-2.49,15.62,15.14.25,26.64,1.53,42.21,4L2584,941.81l-45.69-6c-3.19,30.37-5.3,60.86-8.55,91.22,0,.14,0,.24,0,.36-.05.33-.11.65-.16,1C2529.53,1029.25,2529.45,1030.19,2529.34,1031.11Z"/><path class="cls-24" d="M2664.57,510.78c-1.15-.15-2.33-.23-3.55-.31-3.17-.25-6.42-.49-9.35-1.75-.22,1.21-.43,2.42-.65,3.65l-2.21,14.79c7.56,3.41,16.7,4.53,25.54,5.61,2.74.32,5.43.66,8,1.05l2.82-18.88c-2.94-.51-5.9-1.18-8.76-1.84C2672.53,512.21,2668.5,511.29,2664.57,510.78Z"/><path class="cls-14" d="M2647.67,534.82,2645,552.57c5.07,1,10.06,2.56,14.9,4,1.77.55,3.56,1.1,5.34,1.62,1,.3,2.1.66,3.23,1,3.12,1,6.61,2.19,9.74,2.34l3-20.28c-2.58-.4-5.24-.72-7.92-1.06C2664.62,539.18,2655.62,538.05,2647.67,534.82Z"/><path class="cls-24" d="M2695.47,460.3c-.62-.8-1.25-1.59-1.9-2.38-2.78-3.46-5.64-7-7.54-11.27a90.65,90.65,0,0,0-13.23,13.41c-1.81,2.25-3.54,4.65-5.42,7.47a170.34,170.34,0,0,0,16.9,13.92c1.15.86,2.32,1.69,3.48,2.53,1.58,1.14,3.16,2.29,4.71,3.46.8.59,1.58,1.2,2.38,1.8l.31.17a57.59,57.59,0,0,1,13-10.44c-1.37-2-2.7-4.09-4-6.16C2701.38,468.59,2698.57,464.24,2695.47,460.3Z"/><path class="cls-14" d="M2724,464q-1.15-2-2.34-3.92c-1.56-2.57-3.17-5.23-4.58-8s-2.69-5.6-3.91-8.36c-1.61-3.6-3.26-7.3-5.2-10.76l-1.67.78c-3.14,1.49-4.38,2.07-4.93,2.28-3.41,2-6.5,4-9.41,6.09,1.51,4.12,4.25,7.5,7.15,11.07,1.54,1.89,3.13,3.87,4.5,5.92l1.81,2.72c2.92,4.43,5.95,9,9,13.38l3.64-2c2.75-1.51,5.49-3,8.15-4.6-.08-.18-.15-.36-.25-.54A43.84,43.84,0,0,0,2724,464Z"/><path class="cls-14" d="M2684,490.47c-6.92-5.13-14.07-10.4-20.54-16.53A99.32,99.32,0,0,0,2653.29,501c2.57,1.76,6.84,2.15,10.63,2.47a43.39,43.39,0,0,1,5.56.72c5.86,1.29,11.78,2.35,16.84,3.21a37.93,37.93,0,0,1,4.21-11.65,40.88,40.88,0,0,1-4.87-3.84C2685,491.31,2684.38,490.79,2684,490.47Z"/><path class="cls-23" d="M2631.11,1298.92c2.11-4.67,5.91-10.64,7.4-14.05,3.6-8.25,6.55-17.38,11.13-25,11.17-18.66,20.69-38.54,30.51-58.11l-100.78-58.59c-13.4,27-25.82,54.56-39.27,81.54-.06.11,0,.21-.11.34s-.32.55-.47.83c-.41.82-.81,1.68-1.22,2.49a7,7,0,0,1-.72.94c-2.54,4.54-5.15,9-7.68,13.57,18.28,8.05,30,15.16,51.48,28.73C2597.26,1281.62,2613.14,1293.41,2631.11,1298.92Z"/><path class="cls-15" d="M2678.63,1200.87l-145.69,43.37c16.56,7.5,28.19,14.56,48.44,27.35,15.88,10,31.76,21.82,49.73,27.33,2.11-4.67,5.91-10.64,7.4-14.05,3.6-8.25,6.55-17.38,11.13-25,11.17-18.66,20.69-38.54,30.51-58.11Z"/><path class="cls-14" d="M2542.46,1246a5.78,5.78,0,0,0,.71-.94c.42-.82.81-1.66,1.23-2.48.15-.29.31-.57.47-.84a3.57,3.57,0,0,0,.1-.35c13.46-27,25.87-54.51,39.28-81.52l90.56,52.65c1.77-3.58,3.56-7.16,5.34-10.73l-100.78-58.59c-13.4,27-25.82,54.56-39.27,81.54-.06.11,0,.21-.11.34s-.32.55-.47.83c-.41.82-.81,1.68-1.22,2.49a7,7,0,0,1-.72.94c-2.54,4.54-5.15,9-7.68,13.57,4,1.79,7.74,3.52,11.32,5.29C2541.63,1247.41,2542.05,1246.69,2542.46,1246Z"/><path class="cls-14" d="M2540.4,1308.32c4.7.92,9.42,2,14,3.13,5,1.19,10.1,2.41,15.18,3.35a14.67,14.67,0,0,0,2.72.33c1.35,0,1.53,0,2-4.31l0-.36a68.72,68.72,0,0,1,1.45-8l2.83-20.49c-1.31-.89-2.63-1.8-3.91-2.69a242.78,242.78,0,0,0-28-16.8Z"/><path class="cls-15" d="M2652.64,798.91h22.28a3.39,3.39,0,0,1,3.25,2.82c.2,0,.41,0,.61-.06-.32,4.37-.6,8.81-.81,13.52-1.15,26.43,2.23,133.95,2.71,160.46.45,24,4.9,47.91,7.23,71.8-.89,37.43,16,75.27,29.09,109.42,10.88,28.37,18.37,56.84,20.33,87.3,1.71,26.4-2.29,53-18.32,74.3-15.18,20.17-38.72,31.79-61.19,43.12,0,0-34.69,11.71-71.74,10.14s-61.47-9.77-61.47-9.77c-23.11-10.92-46.44-23.14-61.76-43.49-16-21.3-20-47.9-18.32-74.3,2-30.46,9.45-58.93,20.33-87.3,13.1-34.15,30-72,29.1-109.42,2.32-23.89,6.78-47.8,7.22-71.8.49-26.51,3.87-134,2.71-160.46-.15-3.47-.36-6.73-.57-10-1-2.56,0-6.28,3-6.28h97.46l24.64-177.59H2420.33c17.34,17.48,27.6,40.93,37.26,63.61,10.87,25.52,21.71,52.17,21.14,80.56-.83,41.44,5.27,82.67,4.49,124.08-.69,37.26-6.94,73.88-10.23,110.9.4,78.6-50.75,149.31-62.07,225.67-5.56,37.53-9.63,86.91,14.54,119,22.34,29.68,57.71,42.12,87,62.79,2.08,1.46,3.14,1.81,4.85,4.15,2.19,1.82,1.91,3.92,2,7,.13,11.3,1.63,22.67-2.16,33.57-.46,1.33-.84,2.76-1.74,3.41-1.71,1.56-2.13,2.36-4.3,2.77-21.95,4.31-32.27,7.32-54.15,12-14.09,3-32.09,5.55-44.88,14.07,38.45-.38,65.23,4.36,103.6,1.84,18.75-1.22,39.7-2.38,59-1.56v-.06c25.08-.86,72.73.4,91.56,1.62,38.37,2.52,65.15-2.22,103.59-1.84-12.79-8.52-30.79-11.06-44.87-14.07-21.9-4.68-32.21-7.69-54.16-12a4.79,4.79,0,0,1-3.87-3.32,6,6,0,0,1-2.17-2.86c-3.78-10.9-2.28-22.27-2.15-33.57,0-3.09.29-5.44,2.24-7.53,2-3.12,2.47-2.17,4.55-3.63,29.34-20.67,64.69-33.11,87-62.79,24.16-32.09,20.09-81.47,14.53-119-11.32-76.36-62.46-147.07-62.06-225.67-3.31-37-9.54-73.64-10.24-110.9-.77-41.41,5.32-82.64,4.48-124.08-.57-28.39,10.28-55,21.16-80.56,9.65-22.68,19.92-46.13,37.26-63.61h-84.38Z"/><path class="cls-23" d="M2639.93,1060.42c.36-5.16,1.83-12.21,2-16,.52-9.1.13-18.75,1.78-27.64,4-21.75,6-44,8.44-66L2632,948.16l-15.43,111.73A105.91,105.91,0,0,0,2639.93,1060.42Z"/><path class="cls-14" d="M2887.62,382.44c-.45-2.85-.8-5.72-1.15-8.57-.42-3.43-.86-7-1.47-10.42a62.52,62.52,0,0,0-12.66,2.59l-.63.07v-1.27l0,1.27c-31,8.26-86.89,30.92-157.21,63.82,1.54,2.93,2.89,5.94,4.2,8.87,1.12,2.5,2.26,5.07,3.51,7.55,1.18,2.31,2.54,4.55,3.85,6.74s2.66,4.38,3.84,6.7c.48.94,1,2,1.47,3.15.33.76.67,1.54,1,2.28l9.77-5.05c39.87-22.55,92.82-49.71,149.21-59.69a81.8,81.8,0,0,0-2-9.9C2888.73,387.94,2888.07,385.19,2887.62,382.44Z"/><path class="cls-14" d="M2666.75,566.64c-1-.34-2-.64-2.88-.93-1.54-.44-3.07-.92-4.61-1.4-5-1.55-10.18-3.15-15.36-4.21l-6.81,49.23-1.66,12-75,542.37c4.2-8.79,8.43-17.56,12.8-26.26,1.6-3.16,4.21-4,6.54-3.55a5,5,0,0,1,4.14.42l14.06,8.17,72-521.15,1.66-12,5.55-40.14A50.31,50.31,0,0,1,2666.75,566.64Z"/><path class="cls-1" d="M2533.59,1219.53c-3.64,6.88-7.82,13.39-11.42,20.3a7,7,0,0,0-.75,4.7c-.83,2.75-.32,5.72,2.68,7.09,5.56,2.56,10.79,5,15.87,7.48l-7,50.52a3.85,3.85,0,0,0,.7,2.91,3.63,3.63,0,0,0,2,1.27,3.35,3.35,0,0,0,2.45,1.83c4.81.9,9.66,2.06,14.35,3.19l6,1.42c1,.22,2.17.55,3.37.87a38.63,38.63,0,0,0,9.84,1.86,11.06,11.06,0,0,0,1.94-.15c7.33-1.19,8.05-8.09,8.68-14.21a37.41,37.41,0,0,1,1.28-7.48,3.87,3.87,0,0,0,.06-2.38l1.69-12.27c13.3,8.81,27.71,17.14,42.58,21.2a5.09,5.09,0,0,0,3.19-.2,5.94,5.94,0,0,0,5-2c7.41-7.59,11.32-26.32,17.11-36,12.29-20.49,22.89-41.94,33.75-63.31a8.64,8.64,0,0,0,3.09-7.8H2543.91C2540.52,1205.45,2537.11,1212.51,2533.59,1219.53Z"/><path class="cls-25" d="M2686.9,1206.17c-10.86,21.37-21.46,42.82-33.75,63.31-5.79,9.68-9.7,28.41-17.11,36a5.94,5.94,0,0,1-5,2,5.09,5.09,0,0,1-3.19.2c-14.87-4.06-29.28-12.39-42.58-21.2l-1.69,12.27a3.87,3.87,0,0,1-.06,2.38,37.41,37.41,0,0,0-1.28,7.48c-.63,6.12-1.35,13-8.68,14.21a11.06,11.06,0,0,1-1.94.15,38.63,38.63,0,0,1-9.84-1.86c-1.2-.32-2.35-.65-3.37-.87l-6-1.42c-4.69-1.13-9.54-2.29-14.35-3.19a3.35,3.35,0,0,1-2.45-1.83,3.63,3.63,0,0,1-2-1.27,3.85,3.85,0,0,1-.7-2.91l7-50.52c-5.08-2.48-10.31-4.92-15.87-7.48-3-1.37-3.51-4.34-2.68-7.09a7,7,0,0,1,.75-4.7c3.6-6.91,7.78-13.42,11.42-20.3s6.93-14.08,10.32-21.16h-83.57a197.63,197.63,0,0,0-4.48,21.41c-4.17,28.16-7.22,65.22,10.9,89.29,15.81,21,38,32.21,61.4,44.52,0,0,30.14,9.29,58.41,8.26s20.47-1,28.27-1,36.55-5.67,36.55-5.67c24.5-12.29,47.34-24.33,63.71-46.06,18.12-24.07,15.07-61.13,10.9-89.29a193,193,0,0,0-4.48-21.41H2690A8.64,8.64,0,0,1,2686.9,1206.17Z"/><path class="cls-20" d="M2671.75,967.23c-.49-26.92-2-120.36-2.39-159.72h-17.91l-18,130.67,22.84,3c5.16.67,6,7.18,3.73,11.07-2.56,22.42-5,44.8-8.81,67H2676C2674,1002,2672.07,984.69,2671.75,967.23Z"/><path class="cls-20" d="M2530.61,932.87c.4-3.59,2.52-5.43,4.86-5.87a5,5,0,0,1,4-1.23l45.91,6.06,17.25-124.32h-90c-.06,35.38-2,133.21-2.48,159.72-.32,17.46-2.27,34.75-4.29,52h16.66C2525.46,990.49,2527.41,961.62,2530.61,932.87Z"/><path class="cls-13" d="M2550.25,1185.06l17.1-123.24c-14.35-2.25-27.75-3-43.23-3.5-3.26-.11-4.75-2.66-4.92-5.54a7.06,7.06,0,0,1-.93-4.67c1-7.83,2.64-15.53,3.67-23.36.2-1.82.35-3.66.54-5.48h-16.66c-1.22,10.38-2.46,20.76-3.39,31.19.26,51.56-29,98.6-42.09,147.91h83.57Q2547.09,1191.71,2550.25,1185.06Z"/><path class="cls-13" d="M2676,1019.27h-24.87c-.29,1.71-.53,3.43-.85,5.14-2.07,11.28.73,30.22-3.57,40.19a6.29,6.29,0,0,1-3.92,3.79,5.26,5.26,0,0,1-2.9,1.44,111.51,111.51,0,0,1-24.72.2l-10.55,76.36,82.56,48a5.55,5.55,0,0,1,2.77,4h31.53c-13-49.31-42.35-96.35-42.09-147.91C2678.5,1040,2677.25,1029.65,2676,1019.27Z"/><path class="cls-14" d="M2666.8,1268.73s6.83-.52,6.58,6.5-.49,26.82,7.31,26.3,8-5,8.29-11.71-2.2-20.84,5.85-21.87a68.54,68.54,0,0,1,16.58.26"/><path class="cls-19" d="M2712.62,1265.35c-7.28-2.14-19.87-3.11-25,4.17-4.7,6.72,5.58,31.21-8,29.16-10.83-1.62,6.83-33.38-13.11-31.88-3.75.28-3.76,6.53,0,6.23,7.82-.58,3.88,13.68,3.85,19-.05,6.5,2.77,11.9,9.11,12.85,8.25,1.25,12.49-5,13.36-12.85.56-5-.58-10.14-.73-15.13-.27-9,13.34-7.22,19-5.57C2714.71,1272.44,2716.26,1266.41,2712.62,1265.35Z"/><path class="cls-14" d="M2496.63,1118.19c-1.45.21,22.18-7,21.94,5.21s2.92,16.39,14.62,14.06c0,0-6.09,1.81-6.09,10.93s2.68,29.15-9,26.55-12.43-12.23-11-22.39a138.47,138.47,0,0,0,.73-25.52C2507.6,1126,2503.94,1117.16,2496.63,1118.19Z"/><path class="cls-19" d="M2538.31,1135.1c-12.3.53-14.69,7.41-13.17,19.52.79,6.27,2.26,23.4-9.44,16-5-3.13-5.1-10.79-5-16.13.09-9.66,3-19.71.51-29.25s-12.3-9.43-19.71-8c-3.7.72-2.12,6.74,1.56,6,5.21-1,11.14-1.66,12.84,4.91,1.24,4.78.21,10.54-.25,15.38-.88,9.34-2.22,19.85,2.91,28.14,3.89,6.25,14.88,10.7,19.8,3.36,2.95-4.39,3.38-9.61,3.29-14.88-.14-8.32-5.09-18.34,6.7-18.84C2542.07,1141.19,2542.08,1135,2538.31,1135.1Z"/><path class="cls-24" d="M2892.69,381.49s-117,36.43-188.16,82.25c0,0-26.81,5.22-38.5,72.37s-80.44,602.9-80.44,602.9l14.62,12.5,80.93-585.2,8.27-59.36a42,42,0,0,1,22-27.07c18.51-9.37,95-49.47,118-58.31s63.86-19.26,63.86-19.26Z"/><path class="cls-14" d="M2601,1157.78c9.65,5.74,14.92,15.28,11.77,21.31s-13.51,6.26-23.16.52-14.9-15.27-11.76-21.31S2591.39,1152,2601,1157.78Z"/><path class="cls-23" d="M2601.19,1288.43c1.46-1,46.31-59.35,46.31-59.35s-28.28,71.33-29.74,68.73Z"/><polygon class="cls-23" points="2578.77 1274.89 2608.01 1241.05 2590.47 1281.67 2578.77 1274.89"/><path class="cls-15" d="M2625,971.56c-3.34,17.11-6,34.36-9,51.53-.76,4.27-1.72,8.5-2.75,12.71a14.1,14.1,0,0,1,.79,4.29,114.7,114.7,0,0,1-1.6,23.08c13.34,1.79,22.95,3.16,23.38,3.47,1.46,1,7.8-4.16,7.8-4.16l12.68-114.55Z"/><path class="cls-15" d="M2579.82,1005.7l-55.16,41.67,1,4.7s20.67,2.56,44.11,5.56C2573.72,1040.39,2578.15,1023.31,2579.82,1005.7Z"/><path class="cls-14" d="M2586.22,948.53c.59-4.67.21-9.24.7-13.83-25.07-2.93-47.74-5.45-48.61-5-1.95,1-4.88,5.73-4.88,5.73l-10.72,114,10.72,4.69,12.68-110.89,40.07,5.48C2586.19,948.67,2586.21,948.61,2586.22,948.53Z"/><path class="cls-14" d="M2629.13,954.63l27.15,3.72s-.49-15.62-2-15.62c-.4,0-8.9-1-21.1-2.49C2632.06,945,2630.69,949.85,2629.13,954.63Z"/><path class="cls-14" d="M2573.81,948.4c-.45,4.42-7.65,7.23-16.08,6.26s-14.91-5.35-14.46-9.78,7.64-7.24,16.08-6.26S2574.25,944,2573.81,948.4Z"/><path class="cls-14" d="M2469.47,1381.8c-17.83-18.53-36-42.69-43.28-69.42-16.09-59.35,13.16-129.64,45.34-235.84s20.47-198.37,24.85-287.4-36.55-149.95-36.55-149.95l166.39-1.73,2.24-16.14H2420.33c17.34,17.48,27.6,40.93,37.26,63.61,10.87,25.52,21.71,52.17,21.14,80.56-.83,41.44,5.27,82.67,4.49,124.08-.69,37.26-6.94,73.88-10.23,110.9.4,78.6-50.75,149.31-62.07,225.67-5.56,37.53-9.63,86.91,14.54,119C2437.38,1361,2453,1371.9,2469.47,1381.8Z"/><path class="cls-14" d="M2677.16,621.32,2675,637l74.26-.76a110.54,110.54,0,0,1,12.27-14.87Z"/><path class="cls-14" d="M2535.87,648.56c0,9.5-18.33,17.19-40.94,17.19s-41-7.69-41-17.19,18.34-17.17,41-17.17S2535.87,639.08,2535.87,648.56Z"/><path class="cls-13" d="M2664.81,1411.56c2-3.12,2.47-2.17,4.55-3.63,29.34-20.67,64.69-33.11,87-62.79,24.16-32.09,20.09-81.47,14.53-119-11.32-76.36-62.46-147.07-62.06-225.67-3.31-37-9.54-73.64-10.24-110.9-.77-41.41,5.32-82.64,4.48-124.08-.57-28.39,10.28-55,21.16-80.56,9.65-22.68,19.92-46.13,37.26-63.61h-84.38l-24.52,177.59h22.28a3.39,3.39,0,0,1,3.25,2.82c.2,0,.41,0,.61-.06-.32,4.37-.6,8.81-.81,13.52-1.15,26.43,2.23,133.95,2.71,160.46.45,24,4.9,47.91,7.23,71.8-.89,37.43,16,75.27,29.09,109.42,10.88,28.37,18.37,56.84,20.33,87.3,1.71,26.4-2.29,53-18.32,74.3-15.18,20.17-38.72,31.79-61.19,43.12a230.55,230.55,0,0,1-61,10.21c20.9,10.87,30.28,10.79,41.37,17.12,33.78,19.23,4.94,61.23,8.78,100,14.65.38,11.1-2.66,19.19-2.13,38.37,2.52,65.15-2.22,103.59-1.84-12.79-8.52-30.79-11.06-44.87-14.07-21.9-4.68-32.21-7.69-54.16-12a4.79,4.79,0,0,1-3.87-3.32,6,6,0,0,1-2.17-2.86c-3.78-10.9-2.28-22.27-2.15-33.57C2662.61,1416,2662.86,1413.65,2664.81,1411.56Z"/><path class="cls-14" d="M2540.25,1413.9c-10.37-6.46-17.14-1.46-21,3.71,0,.48,0,1,0,1.48.13,11.3,1.63,22.67-2.16,33.57-.46,1.33-.84,2.76-1.74,3.41-1.71,1.56-2.13,2.36-4.3,2.77-21.95,4.31-32.27,7.32-54.15,12-14.09,3-32.09,5.55-44.88,14.07,38.45-.38,65.23,4.36,103.6,1.84,11.61-.76,24.07-1.43,36.46-1.68C2559.31,1454.32,2551.21,1420.72,2540.25,1413.9Z"/><path class="cls-14" d="M2557.56,865.94c0,7.33-5.56,13.28-12.43,13.28s-12.43-6-12.43-13.28,5.57-13.28,12.43-13.28S2557.56,858.61,2557.56,865.94Z"/><path class="cls-14" d="M2683.57,1136.66c0,7.33-5.56,13.29-12.43,13.29s-12.44-6-12.44-13.29,5.58-13.27,12.44-13.27S2683.57,1129.34,2683.57,1136.66Z"/><path class="cls-14" d="M2505.16,1283.49c0,9.06-6.87,16.41-15.36,16.41s-15.35-7.35-15.35-16.41,6.88-16.4,15.35-16.4S2505.16,1274.42,2505.16,1283.49Z"/><path class="cls-14" d="M2576.09,902.38c0,5.18-3.93,9.37-8.78,9.37s-8.77-4.19-8.77-9.37,3.93-9.37,8.77-9.37S2576.09,897.2,2576.09,902.38Z"/><path class="cls-14" d="M2619.22,1332.69c0,5.17-3.92,9.36-8.77,9.36s-8.77-4.19-8.77-9.36,3.92-9.37,8.77-9.37S2619.22,1327.51,2619.22,1332.69Z"/><path class="cls-14" d="M2513.93,1221.27c0,6-4.58,10.94-10.23,10.94s-10.24-4.9-10.24-10.94,4.59-10.93,10.24-10.93S2513.93,1215.23,2513.93,1221.27Z"/><path class="cls-14" d="M2635.31,1100a5.86,5.86,0,1,1-5.85-6.25A6,6,0,0,1,2635.31,1100Z"/><path class="cls-14" d="M2521.25,816.47l83.7-1.72c.19-2.81.31-5.62.47-8.43a14.68,14.68,0,0,1,1-4.54l-95.44-.92s-2.19,17.17-2.93,19.52-2.92,149.16-2.92,153.85-2.92,26.56-5.85,71.85-16.09,75-16.09,75-35.83,60.14-35.09,137.45,73.12,95.28,73.12,95.28c-20.48-15.62-58.5-31.24-60.69-79.66s13.16-98.39,29.24-132,19-56.24,18.28-81.23a164.43,164.43,0,0,1,5.12-45.29C2524.17,948.46,2521.25,816.47,2521.25,816.47Z"/><path class="cls-14" d="M2646.28,813.89l26.32-.54-.73-10.93-22.67-.22A82.22,82.22,0,0,1,2646.28,813.89Z"/><path class="cls-14" d="M2571.7,819.2c0,6.69-11.95,12.11-26.69,12.11s-26.69-5.42-26.69-12.11,11.95-12.09,26.69-12.09S2571.7,812.52,2571.7,819.2Z"/><polygon class="cls-24" points="2542.45 1270.2 2566.58 1285.84 2563.66 1317.07 2575.36 1316.28 2581.21 1280.36 2543.92 1258.49 2542.45 1270.2"/><path class="cls-19" d="M2896.53,389.82a80.88,80.88,0,0,1-1.81-8.34c-.37-2.5-.67-5-1-7.5a144.42,144.42,0,0,0-2.35-15.07,3.72,3.72,0,0,0-3.76-3.22h-.53a55.2,55.2,0,0,0-14.86,2.52l-.36,0c-47.52,12.33-93,33.65-136.89,54.28q-12.75,6-25.5,11.91a3.58,3.58,0,0,0-2.48,1.14l-1.12.53c-.25.1-25.39,9.68-40.92,32.43-1.29,1.91-2.6,3.72-3.9,5.51l-.47.66a4.06,4.06,0,0,0-1.3,1.82c-5.16,7.24-10,14.76-13,26.75h0l-.27.73.12.2-16,115.12H2414.49c-3.37,0-5.14,2.41-5.5,5-4.15,1-7.16,6.19-3,9.69,20.42,17.21,31.07,42.65,41.52,66.89,15.42,35.83,18,66,19.65,104.21,1.54,35.22,4.83,70.29,4.18,105.6-.59,32-6.54,63.87-9.63,95.7,1.18,49.88-21.32,100.32-38.78,145.83-14.5,37.81-24.48,75.76-27.1,116.35-2.26,35.18,3.05,70.64,24.43,99s58.27,40.82,86.35,60.62a7.84,7.84,0,0,0,1,.58c0,.08,0,.14,0,.22.11,9.57,1.44,19.22-1.2,28.5-25.15,4.87-38.57,8.51-63.63,14.12-16.12,3.6-35.05,8-46.55,21.08a6.15,6.15,0,0,0,.49,8.65c.15,2.86,2,5.6,5.6,5.59,39-.19,66.3,4.24,105.29,2.24,23.35-1.19,48.15-1.07,72.32-2.2,28.59-.63,74,1.17,94.35,2.2,39,2,66.25-2.43,105.29-2.24,3.61,0,5.44-2.73,5.6-5.59a6.15,6.15,0,0,0,.48-8.65c-11.5-13.08-30.43-17.48-46.55-21.08-25.05-5.61-38.48-9.25-63.62-14.12-2.64-9.28-1.31-18.93-1.2-28.5,0-.08-.05-.14-.05-.22a8.6,8.6,0,0,0,1.06-.58c28.08-19.8,64.93-32.17,86.34-60.62s26.69-63.84,24.42-99c-2.61-40.59-12.6-78.54-27.09-116.35-17.46-45.51-40-96-38.78-145.83-3.09-31.83-9-63.69-9.62-95.7-.66-35.31,2.63-70.38,4.17-105.6C2716.4,757,2719,726.79,2734.37,691c10.45-24.24,21.09-49.68,41.52-66.89,4.13-3.5,1.13-8.66-3-9.69a5.4,5.4,0,0,0-5.5-5h-88.55l5.84-42.21a4.47,4.47,0,0,0,.41-2.83l7.61-51c.74-9.16,8.07-17.86,12.27-22.12a71.23,71.23,0,0,1,9.61-6.31,3.78,3.78,0,0,0,2.3-1.28c1.54-.85,3.11-1.68,4.67-2.52,3.21-1.71,6.51-3.48,9.67-5.33,1.84.82,4.07-.68,4.52-2.88,1.11-.74,2.21-1.48,3.09-2.19,45.25-26,99.26-53.79,156.79-63.26a3.43,3.43,0,0,0,2.89-2.88,3.88,3.88,0,0,0,.28-1.62A56.72,56.72,0,0,0,2896.53,389.82Zm-261.1,231.5,1.66-12,6.81-49.23c5.18,1.06,10.35,2.66,15.36,4.21,1.54.48,3.07,1,4.61,1.4.91.29,1.89.59,2.88.93a50.31,50.31,0,0,0,10.36,2.55l-5.55,40.14-1.66,12-72,521.15-14.06-8.17a5,5,0,0,0-4.14-.42c-2.33-.5-4.94.39-6.54,3.55-4.37,8.7-8.6,17.47-12.8,26.26ZM2529.76,1027c3.25-30.36,5.36-60.85,8.55-91.22l45.69,6-15.28,110.09c-15.57-2.47-27.07-3.75-42.21-4,.79-5.22,1.69-10.4,2.49-15.62a8,8,0,0,0,.34-1.17c.11-.92.19-1.86.28-2.78.05-.33.11-.65.16-1C2529.79,1027.23,2529.74,1027.13,2529.76,1027Zm9.71-101.22a5,5,0,0,0-4,1.23c-2.34.44-4.46,2.28-4.86,5.87-3.39,30.57-5.35,61.29-8.67,91.88-1,7.83-2.69,15.53-3.67,23.36a7.06,7.06,0,0,0,.93,4.67c.17,2.88,1.66,5.43,4.92,5.54,15.48.49,28.88,1.25,43.23,3.5l-17.1,123.24c-5.47,11.54-10.95,23.06-16.66,34.47-3.64,6.88-7.82,13.39-11.42,20.3a7,7,0,0,0-.75,4.7c-.83,2.75-.32,5.72,2.68,7.09,5.56,2.56,10.79,5,15.87,7.48l-7,50.52a3.85,3.85,0,0,0,.7,2.91,3.63,3.63,0,0,0,2,1.27,3.35,3.35,0,0,0,2.45,1.83c4.81.9,9.66,2.06,14.35,3.19l6,1.42c1,.22,2.17.55,3.37.87a38.63,38.63,0,0,0,9.84,1.86,11.06,11.06,0,0,0,1.94-.15c7.33-1.19,8.05-8.09,8.68-14.21a37.41,37.41,0,0,1,1.28-7.48,3.87,3.87,0,0,0,.06-2.38l1.69-12.27c13.3,8.81,27.71,17.14,42.58,21.2a5.09,5.09,0,0,0,3.19-.2,5.94,5.94,0,0,0,5-2c7.41-7.59,11.32-26.32,17.11-36,12.29-20.49,22.89-41.94,33.75-63.31,3.47-2.75,4.89-9.13.32-11.78l-82.56-48,10.55-76.36a111.51,111.51,0,0,0,24.72-.2,5.26,5.26,0,0,0,2.9-1.44,6.29,6.29,0,0,0,3.92-3.79c4.3-10,1.5-28.91,3.57-40.19,4.4-23.87,6.91-48,9.66-72.14,2.29-3.89,1.43-10.4-3.73-11.07l-22.84-3,18-130.67h17.91c.42,39.36,1.9,132.8,2.39,159.72.52,27.95,5.2,55.45,7.68,83.23-.29,59,38.08,112,46.57,169.32,4.17,28.16,7.22,65.22-10.9,89.29-16.37,21.73-39.21,33.77-63.71,46.06,0,0-28.74,5.67-36.55,5.67s0,0-28.27,1-58.41-8.26-58.41-8.26c-23.37-12.31-45.59-23.55-61.4-44.52-18.12-24.07-15.07-61.13-10.9-89.29,8.5-57.3,46.87-110.35,46.57-169.32,2.48-27.78,7.16-55.28,7.68-83.23.5-26.51,2.42-124.34,2.48-159.72h90l-17.25,124.32Zm-9.57,317.09c2.53-4.55,5.14-9,7.68-13.57a7,7,0,0,0,.72-.94c.41-.81.81-1.67,1.22-2.49.15-.28.32-.56.47-.83s.05-.23.11-.34c13.45-27,25.87-54.52,39.27-81.54l100.78,58.59c-9.82,19.57-19.34,39.45-30.51,58.11-4.58,7.64-7.53,16.77-11.13,25-1.49,3.41-5.29,9.38-7.4,14.05-18-5.51-33.85-17.3-49.73-27.33C2559.89,1258,2548.18,1250.91,2529.9,1242.86Zm48.77,39.14-2.83,20.49a68.72,68.72,0,0,0-1.45,8l0,.36c-.52,4.31-.7,4.31-2,4.31a14.67,14.67,0,0,1-2.72-.33c-5.08-.94-10.22-2.16-15.18-3.35-4.58-1.09-9.3-2.21-14-3.13l6.33-45.81a242.78,242.78,0,0,1,28,16.8C2576,1280.2,2577.36,1281.11,2578.67,1282Zm37.93-222.11L2632,948.16l20.16,2.66c-2.43,22-4.45,44.26-8.44,66-1.65,8.89-1.26,18.54-1.78,27.64-.21,3.74-1.68,10.79-2,16A105.91,105.91,0,0,1,2616.6,1059.89Zm144.94-438.57c-17.34,17.48-27.61,40.93-37.26,63.61-10.88,25.52-21.73,52.17-21.16,80.56.84,41.44-5.25,82.67-4.48,124.08.7,37.26,6.93,73.88,10.24,110.9-.4,78.6,50.74,149.31,62.06,225.67,5.56,37.53,9.63,86.91-14.53,119-22.36,29.68-57.71,42.12-87,62.79-2.08,1.46-2.6.51-4.55,3.63-1.95,2.09-2.2,4.44-2.24,7.53-.13,11.3-1.63,22.67,2.15,33.57a6,6,0,0,0,2.17,2.86,4.79,4.79,0,0,0,3.87,3.32c21.95,4.31,32.26,7.32,54.16,12,14.08,3,32.08,5.55,44.87,14.07-38.44-.38-65.22,4.36-103.59,1.84-18.83-1.22-66.48-2.48-91.56-1.62v.06c-19.27-.82-40.22.34-59,1.56-38.37,2.52-65.15-2.22-103.6-1.84,12.79-8.52,30.79-11.06,44.88-14.07,21.88-4.68,32.2-7.69,54.15-12,2.17-.41,2.59-1.21,4.3-2.77.9-.65,1.28-2.08,1.74-3.41,3.79-10.9,2.29-22.27,2.16-33.57,0-3.09.24-5.19-2-7-1.71-2.34-2.77-2.69-4.85-4.15-29.33-20.67-64.7-33.11-87-62.79-24.17-32.09-20.1-81.47-14.54-119,11.32-76.36,62.47-147.07,62.07-225.67,3.29-37,9.54-73.64,10.23-110.9.78-41.41-5.32-82.64-4.49-124.08.57-28.39-10.27-55-21.14-80.56-9.66-22.68-19.92-46.13-37.26-63.61h208.13l-24.64,177.59h-97.46c-3,0-4,3.72-3,6.28.21,3.27.42,6.53.57,10,1.16,26.43-2.22,133.95-2.71,160.46-.44,24-4.9,47.91-7.22,71.8.88,37.43-16,75.27-29.1,109.42-10.88,28.37-18.37,56.84-20.33,87.3-1.7,26.4,2.28,53,18.32,74.3,15.32,20.35,38.65,32.57,61.76,43.49,0,0,24.42,8.21,61.47,9.77s71.74-10.14,71.74-10.14c22.47-11.33,46-22.95,61.19-43.12,16-21.3,20-47.9,18.32-74.3-2-30.46-9.45-58.93-20.33-87.3-13.1-34.15-30-72-29.09-109.42-2.33-23.89-6.78-47.8-7.23-71.8-.48-26.51-3.86-134-2.71-160.46.21-4.71.49-9.15.81-13.52-.2,0-.41,0-.61.06a3.39,3.39,0,0,0-3.25-2.82h-22.28l24.52-177.59Zm-83.31-59.69c-3.13-.15-6.62-1.32-9.74-2.34-1.13-.39-2.21-.75-3.23-1-1.78-.52-3.57-1.07-5.34-1.62-4.84-1.49-9.83-3-14.9-4l2.65-17.75c7.95,3.23,16.95,4.36,25.67,5.47,2.68.34,5.34.66,7.92,1.06Zm4.15-27.81c-2.6-.39-5.29-.73-8-1.05-8.84-1.08-18-2.2-25.54-5.61l2.21-14.79c.22-1.23.43-2.44.65-3.65,2.93,1.26,6.18,1.5,9.35,1.75,1.22.08,2.4.16,3.55.31,3.93.51,8,1.43,11.87,2.32,2.86.66,5.82,1.33,8.76,1.84Zm3.94-26.41c-5.06-.86-11-1.92-16.84-3.21a43.39,43.39,0,0,0-5.56-.72c-3.79-.32-8.06-.71-10.63-2.47a99.32,99.32,0,0,1,10.12-27.07c6.47,6.13,13.62,11.4,20.54,16.53.43.32,1,.84,1.71,1.45a40.88,40.88,0,0,0,4.87,3.84A37.93,37.93,0,0,0,2686.32,507.41Zm8.84-18-.31-.17c-.8-.6-1.58-1.21-2.38-1.8-1.55-1.17-3.13-2.32-4.71-3.46-1.16-.84-2.33-1.67-3.48-2.53a170.34,170.34,0,0,1-16.9-13.92c1.88-2.82,3.61-5.22,5.42-7.47A90.65,90.65,0,0,1,2686,446.65c1.9,4.25,4.76,7.81,7.54,11.27.65.79,1.28,1.58,1.9,2.38,3.1,3.94,5.91,8.29,8.62,12.51,1.35,2.07,2.68,4.13,4,6.16A57.59,57.59,0,0,0,2695.16,489.41Zm22.91-16.15-3.64,2c-3.1-4.38-6.13-8.95-9-13.38l-1.81-2.72c-1.37-2.05-3-4-4.5-5.92-2.9-3.57-5.64-6.95-7.15-11.07,2.91-2.06,6-4.05,9.41-6.09.55-.21,1.79-.79,4.93-2.28l1.67-.78c1.94,3.46,3.59,7.16,5.2,10.76,1.22,2.76,2.51,5.61,3.91,8.36s3,5.41,4.58,8q1.18,2,2.34,3.92a43.84,43.84,0,0,1,2,4.08c.1.18.17.36.25.54C2723.56,470.23,2720.82,471.75,2718.07,473.26Zm24.08-13.09-9.77,5.05c-.37-.74-.71-1.52-1-2.28-.5-1.12-1-2.21-1.47-3.15-1.18-2.32-2.53-4.56-3.84-6.7s-2.67-4.43-3.85-6.74c-1.25-2.48-2.39-5.05-3.51-7.55-1.31-2.93-2.66-5.94-4.2-8.87,70.32-32.9,126.18-55.56,157.21-63.82l0-1.27v1.27l.63-.07a62.52,62.52,0,0,1,12.66-2.59c.61,3.45,1.05,7,1.47,10.42.35,2.85.7,5.72,1.15,8.57s1.11,5.5,1.76,8.14a81.8,81.8,0,0,1,2,9.9C2835,410.46,2782,437.62,2742.15,460.17Z"/></g></g></g></svg>